<svg viewBox="0 0 64 56" xmlns="http://www.w3.org/2000/svg"><path fill-rule="evenodd" clip-rule="evenodd" d="M16.436 26.231c-8.383 0-13.621 4.166-15.717 12.499 3.144-4.166 6.811-5.729 11.001-4.688 2.392.594 4.102 2.318 5.993 4.228 3.082 3.109 6.649 6.708 14.441 6.708 8.382 0 13.621-4.165 15.717-12.498-3.143 4.166-6.811 5.729-11.002 4.688-2.391-.596-4.101-2.321-5.992-4.228-3.082-3.11-6.65-6.709-14.441-6.709Z" fill="#bae6fd"/><path fill="#eab308" d="M26 2h22l-8 18h11L23 54l6-26H19l7-26Z"/><path fill="#1e293b" d="M23 56a2 2 0 0 1-1.95-2.45L26.5 30H19a2 2 0 0 1-1.93-2.52l7-26A2 2 0 0 1 26 0h22a2 2 0 0 1 1.83 2.81L43.08 18H51c1.54.004 2.498 1.673 1.725 3.004a1.972 1.972 0 0 1-.185.266l-28 34A2 2 0 0 1 23 56Zm-1.4-30H29a2 2 0 0 1 1.95 2.45l-4.1 17.72L46.76 22H40a2 2 0 0 1-1.83-2.81L44.92 4h-17.4Z"/><path fill="#fff" d="M29 22a2 2 0 0 1-1.93-2.53l3-11c.404-1.486 2.265-1.977 3.35-.884a2 2 0 0 1 .51 1.934l-3 11A2 2 0 0 1 29 22Z"/><path fill-rule="evenodd" clip-rule="evenodd" d="M32.154 7.483c-8.383 0-13.622 4.166-15.718 12.499 3.144-4.166 6.812-5.728 11.003-4.688 2.391.595 4.101 2.319 5.991 4.229 3.083 3.109 6.651 6.708 14.441 6.708 8.382 0 13.622-4.166 15.718-12.498-3.144 4.166-6.811 5.728-11.003 4.685-2.392-.593-4.101-2.318-5.993-4.226-3.082-3.111-6.649-6.709-14.439-6.709Z" fill="#7dd3fc"/></svg>